<svg width="414" height="375" viewBox="0 0 414 375" fill="none" xmlns="http://www.w3.org/2000/svg">
<g clip-path="url(#clip0)">
<g filter="url(#filter0_f)">
<path d="M430.669 234C429.957 234 429.244 233.982 428.513 233.945C420.254 233.491 412.562 230.49 407.957 225.907L371.815 189.916C367.247 185.369 364.762 177.949 365.018 169.583C365.274 161.472 368.124 153.925 372.674 149.414L387.31 134.847C387.73 134.429 388.406 134.429 388.826 134.847C389.247 135.265 389.247 135.938 388.826 136.356L374.191 150.924C370.025 155.07 367.412 162.072 367.174 169.638C366.937 177.313 369.239 184.314 373.332 188.388L409.492 224.379C413.731 228.599 420.894 231.381 428.641 231.799C436.48 232.218 443.551 230.09 447.571 226.089L462.646 211.085C463.066 210.667 463.742 210.667 464.162 211.085C464.582 211.503 464.582 212.176 464.162 212.594L449.088 227.598C444.976 231.727 438.344 234 430.669 234ZM477.61 198.373C477.336 198.373 477.062 198.263 476.843 198.063C476.423 197.645 476.423 196.972 476.843 196.554L484.17 189.261C488.226 185.224 490.73 178.586 490.839 171.529C490.967 164.273 488.647 157.744 484.499 153.597L446.621 115.897C442.473 111.768 435.566 109.24 428.148 109.149C420.748 109.058 413.932 111.368 409.912 115.369L400.447 124.79C400.027 125.208 399.351 125.208 398.931 124.79C398.511 124.371 398.511 123.699 398.931 123.28L408.396 113.86C412.799 109.459 420.2 106.894 428.166 107.003C436.261 107.112 443.533 109.804 448.138 114.369L486.015 152.07C490.583 156.616 493.123 163.709 492.995 171.547C492.867 179.149 490.127 186.333 485.687 190.771L478.359 198.063C478.158 198.263 477.884 198.373 477.61 198.373Z" fill="#00FF68"/>
</g>
<g filter="url(#filter1_f)">
<path d="M358.965 73C358.553 73 358.141 72.9895 357.719 72.9686C352.944 72.7073 348.497 70.9824 345.835 68.3481L324.94 47.6603C322.299 45.0468 320.863 40.7817 321.01 35.9731C321.158 31.3107 322.806 26.9724 325.437 24.3799L333.898 16.0065C334.141 15.7661 334.532 15.7661 334.775 16.0065C335.018 16.2469 335.018 16.6337 334.775 16.8742L326.313 25.2476C323.905 27.631 322.394 31.6557 322.257 36.0044C322.12 40.4159 323.451 44.4405 325.817 46.7822L346.722 67.47C349.173 69.8953 353.314 71.4947 357.793 71.7351C362.324 71.9755 366.412 70.7525 368.736 68.4526L377.451 59.8284C377.694 59.5879 378.085 59.5879 378.328 59.8284C378.571 60.0688 378.571 60.4556 378.328 60.696L369.613 69.3203C367.236 71.6933 363.402 73 358.965 73ZM386.103 52.5212C385.944 52.5212 385.786 52.4585 385.659 52.3435C385.416 52.1031 385.416 51.7163 385.659 51.4759L389.895 47.2839C392.24 44.9632 393.687 41.1476 393.751 37.0916C393.825 32.9206 392.483 29.1677 390.085 26.7843L368.187 5.11378C365.789 2.74079 361.796 1.28773 357.507 1.23546C353.229 1.18319 349.289 2.51081 346.965 4.81062L341.493 10.2256C341.25 10.4661 340.859 10.4661 340.616 10.2256C340.373 9.98519 340.373 9.59841 340.616 9.35797L346.088 3.94296C348.634 1.41317 352.912 -0.0607979 357.518 0.00192417C362.198 0.0646463 366.402 1.61179 369.064 4.23567L390.962 25.9062C393.603 28.5196 395.071 32.5965 394.997 37.102C394.923 41.4717 393.339 45.6009 390.772 48.1516L386.536 52.3435C386.42 52.4585 386.261 52.5212 386.103 52.5212Z" fill="#00FF68"/>
</g>
<g filter="url(#filter2_f)">
<path d="M376.409 375C375.807 375 375.206 374.985 374.589 374.954C367.621 374.571 361.13 372.043 357.245 368.181L326.75 337.858C322.896 334.028 320.799 327.776 321.015 320.728C321.231 313.894 323.636 307.535 327.475 303.735L339.824 291.462C340.179 291.109 340.749 291.109 341.104 291.462C341.458 291.814 341.458 292.381 341.104 292.733L328.755 305.007C325.239 308.5 323.035 314.399 322.834 320.774C322.634 327.24 324.577 333.139 328.03 336.571L358.54 366.894C362.117 370.449 368.16 372.794 374.697 373.146C381.311 373.498 387.278 371.706 390.669 368.335L403.388 355.694C403.743 355.341 404.313 355.341 404.668 355.694C405.023 356.046 405.023 356.613 404.668 356.965L391.949 369.606C388.48 373.085 382.884 375 376.409 375ZM416.015 344.983C415.784 344.983 415.552 344.891 415.367 344.723C415.013 344.37 415.013 343.803 415.367 343.451L421.55 337.307C424.972 333.905 427.084 328.312 427.177 322.367C427.285 316.253 425.327 310.753 421.827 307.259L389.868 275.496C386.368 272.017 380.54 269.887 374.281 269.811C368.037 269.734 362.287 271.68 358.895 275.051L350.909 282.988C350.554 283.341 349.984 283.341 349.629 282.988C349.275 282.636 349.275 282.069 349.629 281.716L357.615 273.779C361.331 270.071 367.575 267.911 374.296 268.003C381.126 268.095 387.262 270.362 391.147 274.208L423.107 305.972C426.961 309.803 429.104 315.778 428.996 322.382C428.888 328.787 426.576 334.84 422.829 338.578L416.647 344.723C416.477 344.891 416.246 344.983 416.015 344.983Z" fill="#00FF68"/>
</g>
<g filter="url(#filter3_f)">
<path d="M-14.6694 291C-13.9568 291 -13.2442 290.982 -12.5133 290.945C-4.25438 290.491 3.43816 287.49 8.04271 282.907L44.1848 246.916C48.7528 242.369 51.2378 234.949 50.982 226.583C50.7262 218.472 47.8758 210.925 43.326 206.414L28.6901 191.847C28.2699 191.429 27.5938 191.429 27.1735 191.847C26.7533 192.265 26.7533 192.938 27.1735 193.356L41.8095 207.924C45.9755 212.07 48.5884 219.072 48.8259 226.638C49.0635 234.313 46.7612 241.314 42.6682 245.388L6.50786 281.379C2.26875 285.599 -4.8939 288.381 -12.6412 288.799C-20.48 289.218 -27.5512 287.09 -31.5711 283.089L-46.6455 268.085C-47.0658 267.667 -47.7418 267.667 -48.1621 268.085C-48.5824 268.503 -48.5824 269.176 -48.1621 269.594L-33.0877 284.598C-28.9765 288.727 -22.3437 291 -14.6694 291ZM-61.6103 255.373C-61.3362 255.373 -61.0622 255.263 -60.8429 255.063C-60.4226 254.645 -60.4226 253.972 -60.8429 253.554L-68.17 246.261C-72.2264 242.224 -74.7297 235.586 -74.8393 228.529C-74.9672 221.273 -72.6466 214.744 -68.4989 210.597L-30.6209 172.897C-26.4732 168.768 -19.5664 166.24 -12.1479 166.149C-4.74772 166.058 2.06775 168.368 6.0876 172.369L15.5525 181.79C15.9728 182.208 16.6488 182.208 17.0691 181.79C17.4894 181.371 17.4894 180.699 17.0691 180.28L7.60418 170.86C3.20062 166.459 -4.19956 163.894 -12.1662 164.003C-20.2607 164.112 -27.533 166.804 -32.1375 171.369L-70.0155 209.07C-74.5835 213.616 -77.1233 220.709 -76.9954 228.547C-76.8675 236.149 -74.1267 243.333 -69.6866 247.771L-62.3595 255.063C-62.1585 255.263 -61.8844 255.373 -61.6103 255.373Z" fill="#00FF68"/>
</g>
<path opacity="0.3" d="M82.5044 47C82.7159 47 82.9275 46.9947 83.1445 46.9841C85.5964 46.8516 87.8801 45.9774 89.2471 44.6422L99.9767 34.1566C101.333 32.832 102.071 30.6702 101.995 28.2329C101.919 25.8698 101.072 23.671 99.7218 22.3569L95.3768 18.1129C95.252 17.991 95.0513 17.991 94.9265 18.1129C94.8018 18.2348 94.8018 18.4308 94.9265 18.5527L99.2716 22.7967C100.508 24.0048 101.284 26.0447 101.355 28.2488C101.425 30.4848 100.742 32.5247 99.5265 33.7115L88.7914 44.1971C87.5329 45.4264 85.4065 46.237 83.1065 46.3589C80.7794 46.4808 78.6801 45.8608 77.4867 44.6952L73.0115 40.324C72.8867 40.2021 72.686 40.2021 72.5613 40.324C72.4365 40.4458 72.4365 40.6419 72.5613 40.7637L77.0365 45.1349C78.257 46.3377 80.2261 47 82.5044 47ZM68.5688 36.6203C68.6502 36.6203 68.7315 36.5886 68.7966 36.5303C68.9214 36.4084 68.9214 36.2124 68.7966 36.0905L66.6214 33.9658C65.4172 32.7896 64.674 30.8556 64.6415 28.7998C64.6035 26.6858 65.2924 24.7836 66.5238 23.5756L77.7688 12.5919C79.0001 11.3892 81.0506 10.6527 83.253 10.6262C85.4499 10.5997 87.4732 11.2726 88.6666 12.4383L91.4765 15.1829C91.6013 15.3047 91.802 15.3047 91.9268 15.1829C92.0515 15.061 92.0515 14.8649 91.9268 14.7431L89.1169 11.9985C87.8096 10.7163 85.6126 9.96918 83.2475 10.001C80.8445 10.0328 78.6855 10.8169 77.3185 12.1468L66.0735 23.1305C64.7174 24.4551 63.9634 26.5215 64.0014 28.8051C64.0393 31.0199 64.853 33.1128 66.1712 34.4056L68.3464 36.5303C68.4061 36.5886 68.4874 36.6203 68.5688 36.6203Z" fill="#00FF68"/>
<path opacity="0.3" d="M148.504 363C148.716 363 148.927 362.995 149.144 362.984C151.596 362.852 153.88 361.977 155.247 360.642L165.977 350.157C167.333 348.832 168.071 346.67 167.995 344.233C167.919 341.87 167.072 339.671 165.722 338.357L161.377 334.113C161.252 333.991 161.051 333.991 160.927 334.113C160.802 334.235 160.802 334.431 160.927 334.553L165.272 338.797C166.508 340.005 167.284 342.045 167.355 344.249C167.425 346.485 166.742 348.525 165.527 349.712L154.791 360.197C153.533 361.426 151.407 362.237 149.107 362.359C146.779 362.481 144.68 361.861 143.487 360.695L139.011 356.324C138.887 356.202 138.686 356.202 138.561 356.324C138.436 356.446 138.436 356.642 138.561 356.764L143.036 361.135C144.257 362.338 146.226 363 148.504 363ZM134.569 352.62C134.65 352.62 134.732 352.589 134.797 352.53C134.921 352.408 134.921 352.212 134.797 352.091L132.621 349.966C131.417 348.79 130.674 346.856 130.641 344.8C130.603 342.686 131.292 340.784 132.524 339.576L143.769 328.592C145 327.389 147.051 326.653 149.253 326.626C151.45 326.6 153.473 327.273 154.667 328.438L157.477 331.183C157.601 331.305 157.802 331.305 157.927 331.183C158.052 331.061 158.052 330.865 157.927 330.743L155.117 327.998C153.81 326.716 151.613 325.969 149.248 326.001C146.844 326.033 144.686 326.817 143.319 328.147L132.074 339.131C130.717 340.455 129.963 342.522 130.001 344.805C130.039 347.02 130.853 349.113 132.171 350.406L134.346 352.53C134.406 352.589 134.487 352.62 134.569 352.62Z" fill="#00FF68"/>
</g>
<defs>
<filter id="filter0_f" x="350" y="92" width="158" height="157" filterUnits="userSpaceOnUse" color-interpolation-filters="sRGB">
<feFlood flood-opacity="0" result="BackgroundImageFix"/>
<feBlend mode="normal" in="SourceGraphic" in2="BackgroundImageFix" result="shape"/>
<feGaussianBlur stdDeviation="7.5" result="effect1_foregroundBlur"/>
</filter>
<filter id="filter1_f" x="319" y="-2" width="78" height="77" filterUnits="userSpaceOnUse" color-interpolation-filters="sRGB">
<feFlood flood-opacity="0" result="BackgroundImageFix"/>
<feBlend mode="normal" in="SourceGraphic" in2="BackgroundImageFix" result="shape"/>
<feGaussianBlur stdDeviation="1" result="effect1_foregroundBlur"/>
</filter>
<filter id="filter2_f" x="317" y="264" width="116" height="115" filterUnits="userSpaceOnUse" color-interpolation-filters="sRGB">
<feFlood flood-opacity="0" result="BackgroundImageFix"/>
<feBlend mode="normal" in="SourceGraphic" in2="BackgroundImageFix" result="shape"/>
<feGaussianBlur stdDeviation="2" result="effect1_foregroundBlur"/>
</filter>
<filter id="filter3_f" x="-87" y="154" width="148" height="147" filterUnits="userSpaceOnUse" color-interpolation-filters="sRGB">
<feFlood flood-opacity="0" result="BackgroundImageFix"/>
<feBlend mode="normal" in="SourceGraphic" in2="BackgroundImageFix" result="shape"/>
<feGaussianBlur stdDeviation="5" result="effect1_foregroundBlur"/>
</filter>
<clipPath id="clip0">
<rect width="414" height="375" fill="white"/>
</clipPath>
</defs>
</svg>
