<svg width="414" height="387" viewBox="0 0 414 387" fill="none" xmlns="http://www.w3.org/2000/svg">
<defs>
<linearGradient id="paint0_linear" x1="402.709" y1="193.5" x2="0" y2="193.5" gradientUnits="userSpaceOnUse">
<stop stop-color="#00E6E3"/>
<stop offset="1" stop-color="#00FF68"/>
</linearGradient>
<clipPath id="clip0">
<rect width="414" height="387" fill="white"/>
</clipPath>
</defs>
<g clip-path="url(#clip0)">
<path d="M0 11.1511L414 0V375.849L0 387V11.1511Z" fill="url(#paint0_linear)"/>
<path opacity="0.4" d="M380.669 152C379.957 152 379.244 151.982 378.513 151.945C370.254 151.491 362.562 148.49 357.957 143.907L321.815 107.916C317.247 103.369 314.762 95.9491 315.018 87.5833C315.274 79.4721 318.124 71.9246 322.674 67.4144L337.31 52.8469C337.73 52.4287 338.406 52.4287 338.826 52.8469C339.247 53.2652 339.247 53.9381 338.826 54.3564L324.191 68.9239C320.025 73.0704 317.412 80.0722 317.174 87.6378C316.937 95.3125 319.239 102.314 323.332 106.388L359.492 142.379C363.731 146.599 370.894 149.381 378.641 149.799C386.48 150.218 393.551 148.09 397.571 144.089L412.646 129.085C413.066 128.667 413.742 128.667 414.162 129.085C414.582 129.503 414.582 130.176 414.162 130.594L399.088 145.598C394.976 149.727 388.344 152 380.669 152ZM427.61 116.373C427.336 116.373 427.062 116.263 426.843 116.063C426.423 115.645 426.423 114.972 426.843 114.554L434.17 107.261C438.226 103.224 440.73 96.5856 440.839 89.5292C440.967 82.2728 438.647 75.7438 434.499 71.5973L396.621 33.8966C392.473 29.7682 385.566 27.2403 378.148 27.1494C370.748 27.0584 363.932 29.3681 359.912 33.3692L350.447 42.7898C350.027 43.2081 349.351 43.2081 348.931 42.7898C348.511 42.3715 348.511 41.6986 348.931 41.2803L358.396 31.8597C362.799 27.4585 370.2 24.8942 378.166 25.0033C386.261 25.1125 393.533 27.8041 398.138 32.3689L436.015 70.0696C440.583 74.6162 443.123 81.709 442.995 89.5474C442.867 97.1494 440.127 104.333 435.687 108.771L428.359 116.063C428.158 116.263 427.884 116.373 427.61 116.373Z" fill="white"/>
<path opacity="0.4" d="M316.069 249C315.613 249 315.156 248.988 314.688 248.965C309.397 248.675 304.469 246.761 301.52 243.838L278.366 220.883C275.44 217.983 273.848 213.251 274.012 207.915C274.175 202.742 276.001 197.928 278.916 195.052L288.292 185.761C288.561 185.494 288.995 185.494 289.264 185.761C289.533 186.027 289.533 186.457 289.264 186.723L279.888 196.014C277.219 198.659 275.545 203.125 275.393 207.95C275.241 212.845 276.715 217.311 279.338 219.909L302.503 242.864C305.218 245.555 309.807 247.33 314.77 247.596C319.792 247.863 324.322 246.506 326.897 243.954L336.554 234.385C336.823 234.118 337.256 234.118 337.526 234.385C337.795 234.652 337.795 235.081 337.526 235.348L327.869 244.917C325.235 247.55 320.986 249 316.069 249ZM346.141 226.277C345.965 226.277 345.79 226.207 345.649 226.08C345.38 225.813 345.38 225.384 345.649 225.117L350.343 220.466C352.942 217.891 354.546 213.657 354.616 209.156C354.698 204.528 353.211 200.364 350.554 197.72L326.288 173.674C323.631 171.041 319.207 169.429 314.454 169.371C309.713 169.313 305.347 170.786 302.772 173.338L296.709 179.346C296.439 179.613 296.006 179.613 295.737 179.346C295.468 179.079 295.468 178.65 295.737 178.384L301.8 172.375C304.621 169.568 309.362 167.933 314.466 168.002C319.651 168.072 324.31 169.788 327.26 172.7L351.526 196.745C354.452 199.645 356.079 204.169 355.997 209.168C355.915 214.017 354.159 218.598 351.315 221.428L346.621 226.08C346.492 226.207 346.317 226.277 346.141 226.277Z" fill="white"/>
<g opacity="0.8">
<path d="M-51.6694 156C-50.9568 156 -50.2442 155.982 -49.5133 155.945C-41.2544 155.491 -33.5618 152.49 -28.9573 147.907L7.18482 111.916C11.7528 107.369 14.2378 99.9491 13.982 91.5833C13.7262 83.4721 10.8758 75.9246 6.32604 71.4144L-8.30987 56.8469C-8.73013 56.4287 -9.40619 56.4287 -9.82645 56.8469C-10.2467 57.2652 -10.2467 57.9381 -9.82645 58.3564L4.80946 72.9239C8.97549 77.0704 11.5884 84.0722 11.8259 91.6378C12.0635 99.3125 9.76118 106.314 5.66824 110.388L-30.4921 146.379C-34.7313 150.599 -41.8939 153.381 -49.6412 153.799C-57.48 154.218 -64.5512 152.09 -68.5711 148.089L-83.6455 133.085C-84.0658 132.667 -84.7418 132.667 -85.1621 133.085C-85.5824 133.503 -85.5824 134.176 -85.1621 134.594L-70.0877 149.598C-65.9765 153.727 -59.3437 156 -51.6694 156ZM-98.6103 120.373C-98.3362 120.373 -98.0622 120.263 -97.8429 120.063C-97.4226 119.645 -97.4226 118.972 -97.8429 118.554L-105.17 111.261C-109.226 107.224 -111.73 100.586 -111.839 93.5292C-111.967 86.2728 -109.647 79.7438 -105.499 75.5973L-67.6209 37.8966C-63.4732 33.7682 -56.5664 31.2403 -49.1479 31.1494C-41.7477 31.0584 -34.9322 33.3681 -30.9124 37.3692L-21.4475 46.7898C-21.0272 47.2081 -20.3512 47.2081 -19.9309 46.7898C-19.5106 46.3715 -19.5106 45.6986 -19.9309 45.2803L-29.3958 35.8597C-33.7994 31.4585 -41.1996 28.8942 -49.1662 29.0033C-57.2607 29.1125 -64.533 31.8041 -69.1375 36.3689L-107.015 74.0696C-111.583 78.6162 -114.123 85.709 -113.995 93.5474C-113.867 101.149 -111.127 108.333 -106.687 112.771L-99.3595 120.063C-99.1585 120.263 -98.8844 120.373 -98.6103 120.373Z" fill="white"/>
<path d="M9.93051 247C10.387 247 10.8435 246.988 11.3118 246.965C16.6027 246.675 21.5307 244.761 24.4805 241.838L47.634 218.883C50.5604 215.983 52.1524 211.251 51.9885 205.915C51.8246 200.742 49.9985 195.928 47.0839 193.052L37.7077 183.761C37.4385 183.494 37.0054 183.494 36.7362 183.761C36.467 184.027 36.467 184.457 36.7362 184.723L46.1123 194.014C48.7812 196.659 50.4551 201.125 50.6072 205.95C50.7594 210.845 49.2845 215.311 46.6625 217.909L23.4972 240.864C20.7815 243.555 16.193 245.33 11.2298 245.596C6.20816 245.863 1.67811 244.506 -0.897102 241.954L-10.5542 232.385C-10.8234 232.118 -11.2565 232.118 -11.5257 232.385C-11.7949 232.652 -11.7949 233.081 -11.5257 233.348L-1.86866 242.917C0.765081 245.55 5.01419 247 9.93051 247ZM-20.141 224.277C-19.9654 224.277 -19.7898 224.207 -19.6494 224.08C-19.3801 223.813 -19.3801 223.384 -19.6494 223.117L-24.3433 218.466C-26.9419 215.891 -28.5456 211.657 -28.6158 207.156C-28.6977 202.528 -27.2111 198.364 -24.554 195.72L-0.288417 171.674C2.36874 169.041 6.79343 167.429 11.5459 167.371C16.2866 167.313 20.6528 168.786 23.228 171.338L29.2915 177.346C29.5607 177.613 29.9938 177.613 30.263 177.346C30.5322 177.079 30.5322 176.65 30.263 176.384L24.1996 170.375C21.3785 167.568 16.6378 165.933 11.5342 166.002C6.34862 166.072 1.68982 167.788 -1.25997 170.7L-25.5255 194.745C-28.4519 197.645 -30.079 202.169 -29.997 207.168C-29.9151 212.017 -28.1593 216.598 -25.3148 219.428L-20.6209 224.08C-20.4922 224.207 -20.3166 224.277 -20.141 224.277Z" fill="white"/>
<path d="M-50.8956 370C-50.2999 370 -49.7042 369.985 -49.0932 369.954C-42.1892 369.575 -35.7587 367.07 -31.9096 363.245L-1.69706 333.205C2.12151 329.41 4.19881 323.217 3.98497 316.235C3.77113 309.465 1.38835 303.165 -2.41495 299.401L-14.6497 287.242C-15.001 286.893 -15.5661 286.893 -15.9174 287.242C-16.2687 287.591 -16.2687 288.153 -15.9174 288.502L-3.68272 300.661C-0.200181 304.122 1.98404 309.966 2.18261 316.28C2.38117 322.686 0.456614 328.53 -2.96483 331.93L-33.1926 361.97C-36.7363 365.492 -42.7238 367.814 -49.2001 368.163C-55.7528 368.512 -61.6639 366.736 -65.0243 363.397L-77.6256 350.874C-77.9769 350.525 -78.542 350.525 -78.8933 350.874C-79.2446 351.223 -79.2446 351.785 -78.8933 352.134L-66.292 364.657C-62.8553 368.103 -57.3108 370 -50.8956 370ZM-90.1352 340.264C-89.9061 340.264 -89.677 340.173 -89.4937 340.006C-89.1424 339.657 -89.1424 339.095 -89.4937 338.746L-95.6187 332.659C-99.0096 329.289 -101.102 323.749 -101.194 317.859C-101.301 311.802 -99.3609 306.353 -95.8936 302.892L-64.23 271.425C-60.7627 267.98 -54.9891 265.87 -48.7877 265.794C-42.6016 265.718 -36.9043 267.646 -33.544 270.985L-25.6319 278.848C-25.2806 279.197 -24.7154 279.197 -24.3641 278.848C-24.0128 278.499 -24.0128 277.937 -24.3641 277.588L-32.2762 269.725C-35.9573 266.052 -42.1434 263.912 -48.803 264.003C-55.5695 264.094 -61.6487 266.34 -65.4978 270.15L-97.1614 301.617C-100.98 305.412 -103.103 311.332 -102.996 317.874C-102.889 324.219 -100.598 330.215 -96.8864 333.919L-90.7615 340.006C-90.5934 340.173 -90.3643 340.264 -90.1352 340.264Z" fill="white"/>
</g>
</g>

</svg>
