<svg xmlns="http://www.w3.org/2000/svg" xmlns:xlink="http://www.w3.org/1999/xlink" viewBox="0 0 38.5 38.5">
  <defs>
    <linearGradient id="a" x1="39.2" y1="20.89" x2="1.75" y2="20.89" gradientTransform="matrix(1, 0, 0, -1, 0, 41.89)" gradientUnits="userSpaceOnUse">
      <stop offset="0" stop-color="#00e6e3"/>
      <stop offset="1" stop-color="#00ff68"/>
    </linearGradient>
  </defs>
  <path d="M13.06,1.87c2.06-.1,2.71-.12,7.94-.12s5.88,0,7.93.12a14.17,14.17,0,0,1,4.68.89A9.41,9.41,0,0,1,37,5a9.41,9.41,0,0,1,2.22,3.41,14.16,14.16,0,0,1,.89,4.67c.1,2.06.12,2.71.12,7.94s0,5.88-.12,7.94a14.27,14.27,0,0,1-.89,4.67,9.84,9.84,0,0,1-5.63,5.63,14.16,14.16,0,0,1-4.67.89c-2.06.1-2.71.12-7.94.12s-5.88,0-7.94-.12a14.27,14.27,0,0,1-4.67-.89A9.41,9.41,0,0,1,5,37a9.41,9.41,0,0,1-2.22-3.41,14.16,14.16,0,0,1-.89-4.67c-.1-2.06-.12-2.71-.12-7.94s0-5.88.12-7.93a14.17,14.17,0,0,1,.89-4.68A9.41,9.41,0,0,1,5,5,9.41,9.41,0,0,1,8.39,2.76a14.16,14.16,0,0,1,4.67-.89ZM28.78,5.33c-2-.09-2.64-.11-7.78-.11s-5.75,0-7.78.11A10.78,10.78,0,0,0,9.65,6,6.09,6.09,0,0,0,7.43,7.43,6,6,0,0,0,6,9.65a10.78,10.78,0,0,0-.66,3.57c-.09,2-.11,2.64-.11,7.78s0,5.75.11,7.78A10.84,10.84,0,0,0,6,32.35a6,6,0,0,0,1.44,2.22A6,6,0,0,0,9.65,36a10.78,10.78,0,0,0,3.57.66c2,.09,2.64.11,7.78.11s5.75,0,7.78-.11A10.84,10.84,0,0,0,32.35,36a6.09,6.09,0,0,0,2.22-1.44A6,6,0,0,0,36,32.35a10.84,10.84,0,0,0,.66-3.57c.09-2,.11-2.64.11-7.78s0-5.75-.11-7.78A10.78,10.78,0,0,0,36,9.65a6.09,6.09,0,0,0-1.44-2.22A6,6,0,0,0,32.35,6,10.84,10.84,0,0,0,28.78,5.33ZM18.54,26.93a6.42,6.42,0,0,0,8.86-6.56,6.42,6.42,0,0,0-7-5.76,6.34,6.34,0,0,0-2.67.88,6.41,6.41,0,0,0-1.46,9.82A6.3,6.3,0,0,0,18.54,26.93ZM14,14a9.92,9.92,0,1,1-2.89,7A9.92,9.92,0,0,1,14,14Zm19.09-1.42a2.38,2.38,0,0,0,.73-1.67,2.2,2.2,0,0,0-.17-.91,2.27,2.27,0,0,0-1.29-1.29,2.2,2.2,0,0,0-.91-.17,2.38,2.38,0,0,0-1.67.73,2.35,2.35,0,0,0,1.67,4A2.32,2.32,0,0,0,33.09,12.58Z" transform="translate(-1.75 -1.75)" style="fill-rule: evenodd;fill: url(#a)"/>
</svg>
