<svg xmlns="http://www.w3.org/2000/svg" xmlns:xlink="http://www.w3.org/1999/xlink" viewBox="0 0 62.11 62.1">
  <defs>
    <linearGradient id="a" x1="60.42" y1="32.95" x2="0" y2="32.95" gradientTransform="matrix(1, 0, 0, -1, 0, 64)" gradientUnits="userSpaceOnUse">
      <stop offset="0" stop-color="#00e6e3"/>
      <stop offset="1" stop-color="#00ff68"/>
    </linearGradient>
  </defs>
  <path d="M24.38,1.89A127.9,127.9,0,0,0,7.62,17.28C9,20,9.7,21.34,11,24l.06.09q4.38,8.82,8.71,17.69c1.1,2.24,2.51,3.57,3.77,3.55S26,44.27,27,42.44l2.53,5a7.81,7.81,0,0,1-2.68,2.16,7.72,7.72,0,0,1-3.36.8c-3.85,0-6.78-2.93-8.27-6.25C11.59,36.52,7.94,29,4.16,21.42c-.76,1-1.52,2-2.27,3a12.7,12.7,0,0,0,0,13.33,122.28,122.28,0,0,0,22.5,22.5,12.65,12.65,0,0,0,13.33,0,122.28,122.28,0,0,0,22.5-22.5,12.7,12.7,0,0,0,0-13.33c-.75-1-1.5-2-2.27-2.95C54.19,29,50.53,36.55,46.87,44.14c-1.49,3.31-4.43,6.25-8.27,6.24a9.63,9.63,0,0,1-7.69-5.07v0c-1.07-2.08-1.6-3.13-2.65-5.21L27.67,39a.86.86,0,0,1-.07-.1l-.5-1Q24.55,32.78,22,27.71a10.84,10.84,0,0,1-1.54-5.46.49.49,0,0,1,0-.17,10.57,10.57,0,0,1,21.13.17v.14a10.76,10.76,0,0,1-1.43,5.13q-2.62,5-5.23,10l-2.73-5.39c1.4-2.79,2.09-4.18,3.51-7l.07-.14a5.59,5.59,0,0,0,.76-2.77v-.1a5.54,5.54,0,0,0-1.65-3.89,5.52,5.52,0,0,0-9.38,4v.12a5.64,5.64,0,0,0,.83,2.77l.12.2,2.75,5.5h0c1.52,3,3,6,4.56,9v0c.37.75.56,1.13.94,1.88l0,0c1.13,2.19,2.55,3.51,3.8,3.53S41.2,44,42.3,41.77c4-8.18,8-16.38,12.19-24.5A127.35,127.35,0,0,0,37.71,1.89a12.7,12.7,0,0,0-13.33,0Z" transform="translate(0)" style="fill: url(#a)"/>
</svg>
