<svg width="144" height="32" viewBox="0 0 144 32" fill="none" xmlns="http://www.w3.org/2000/svg">
<path d="M20.7119 1.18356C20.8482 0.837811 21.0941 0.546266 21.4119 0.353555C21.7387 0.148297 22.116 0.0375461 22.5019 0.0335626C22.7718 0.0246012 23.0405 0.0745224 23.2891 0.179864C23.5378 0.285205 23.7606 0.443441 23.9419 0.643563C24.2806 0.996526 24.4735 1.46443 24.4819 1.95356C24.4809 2.22171 24.4158 2.48574 24.2919 2.72357C24.1683 2.95532 24.071 3.20017 24.0019 3.45356C23.8519 3.90356 23.5919 4.63356 23.2019 5.62356L21.7019 9.62356L19.3719 15.9236L22.3119 23.9236L30.9419 1.22356C31.0742 0.875443 31.3211 0.582724 31.6419 0.393563C31.9667 0.183783 32.3453 0.0726244 32.7319 0.0735559C33.0017 0.0659297 33.2699 0.116462 33.5184 0.221719C33.7668 0.326975 33.9897 0.48449 34.1719 0.683556C34.5106 1.03652 34.7035 1.50444 34.7119 1.99357C34.706 2.26108 34.6411 2.52398 34.5219 2.76356C34.4719 2.84356 34.3119 3.28356 34.0419 4.07356C33.7719 4.86356 33.2519 6.25356 32.5019 8.26356C31.7519 10.2736 30.7419 12.9736 29.4419 16.4136C28.1419 19.8536 26.4419 24.2036 24.4419 29.4836C24.2905 29.9204 24.0367 30.3147 23.7019 30.6336C23.319 30.9514 22.8282 31.109 22.3319 31.0736C22.0681 31.083 21.8051 31.0402 21.5579 30.9475C21.3108 30.8548 21.0844 30.7141 20.8919 30.5336C20.5817 30.2546 20.3331 29.914 20.1619 29.5336C19.6019 28.0336 19.0919 26.6036 18.6219 25.2136C18.1519 23.8236 17.7019 22.5436 17.2819 21.3436C16.8086 22.5436 16.3286 23.8336 15.8419 25.2136C15.3519 26.6036 14.8419 28.0336 14.2119 29.5336C14.064 29.9698 13.8137 30.3641 13.4819 30.6836C13.093 30.9975 12.6007 31.1545 12.1019 31.1236C11.8381 31.133 11.5751 31.0902 11.3279 30.9975C11.0808 30.9048 10.8544 30.7641 10.6619 30.5836C10.3534 30.3031 10.1051 29.9629 9.93192 29.5836C8.13858 24.6836 6.62525 20.5369 5.39192 17.1436C4.15192 13.7536 3.15192 11.0336 2.39192 8.96356L0.701918 4.32356C0.361918 3.38356 0.191918 2.89356 0.191918 2.84356C0.0529803 2.55749 -0.0123283 2.24126 0.00191754 1.92356C-0.0153086 1.4229 0.155985 0.934002 0.481918 0.553567C0.654687 0.365375 0.867428 0.218279 1.10451 0.123101C1.34159 0.0279234 1.59698 -0.0129202 1.85192 0.00356379C2.28052 -0.00607064 2.70322 0.104794 3.07192 0.323556C3.38971 0.516267 3.63558 0.807812 3.77192 1.15356L12.0819 23.9236L15.1519 15.8636C14.3019 13.5636 13.5719 11.5936 12.9819 9.95356C12.3919 8.31356 11.8919 6.95356 11.5019 5.95356C11.1119 4.95356 10.8519 4.17356 10.6719 3.68356C10.5691 3.42336 10.4856 3.15599 10.4219 2.88357C10.2878 2.60654 10.2226 2.30121 10.2319 1.99357C10.2147 1.4929 10.386 1.00399 10.7119 0.623559C10.8842 0.434791 11.0969 0.28731 11.3341 0.192086C11.5713 0.0968627 11.8269 0.0563456 12.0819 0.0735559C12.5104 0.0649871 12.9328 0.175791 13.3019 0.393563C13.6197 0.586275 13.8656 0.877819 14.0019 1.22356L17.2619 10.4936L20.7119 1.18356Z" fill="white"/>
<path d="M67.0618 25.2236C65.6034 26.839 63.8949 28.2098 62.0018 29.2836C60.049 30.4048 57.8336 30.988 55.5818 30.9736C51.5275 31.009 47.6224 29.4462 44.7118 26.6235C43.2931 25.2442 42.1643 23.5953 41.3918 21.7736C40.5672 19.8326 40.1518 17.7424 40.1718 15.6336C40.1679 13.5745 40.5723 11.5352 41.3618 9.63356C42.1136 7.78314 43.223 6.09926 44.6267 4.67842C46.0304 3.25757 47.7007 2.12769 49.5418 1.35354C51.4911 0.533992 53.5874 0.122212 55.7018 0.14355C57.718 0.134793 59.7126 0.557599 61.5518 1.38356C65.2375 3.01913 68.1797 5.97197 69.8018 9.66355C70.6351 11.5536 71.0611 13.598 71.0518 15.6636V29.1235C71.0552 29.384 71.0055 29.6425 70.9058 29.8832C70.8061 30.1239 70.6584 30.3418 70.4718 30.5236C70.0975 30.893 69.5928 31.1002 69.0668 31.1002C68.5409 31.1002 68.0361 30.893 67.6618 30.5236C67.4766 30.3413 67.3305 30.1231 67.2324 29.8823C67.1344 29.6416 67.0866 29.3834 67.0918 29.1235L67.0618 25.2236ZM67.0618 15.6336C67.0659 14.0982 66.7598 12.5777 66.1618 11.1636C65.5887 9.78567 64.7497 8.5342 63.6927 7.48068C62.6358 6.42715 61.3816 5.59222 60.0018 5.02355C58.5888 4.42185 57.0676 4.11556 55.5318 4.12355C54.0054 4.11223 52.4934 4.41874 51.0918 5.02355C48.336 6.19364 46.1494 8.39828 45.0018 11.1636C44.4025 12.577 44.0996 14.0984 44.1118 15.6336C44.0974 17.1593 44.4004 18.6713 45.0018 20.0735C46.1756 22.8211 48.3643 25.0097 51.1118 26.1835C52.5052 26.761 53.9986 27.0582 55.5068 27.0582C57.0151 27.0582 58.5085 26.761 59.9018 26.1835C62.6289 25.0391 64.8125 22.8913 66.0018 20.1835C66.6294 18.7371 66.9886 17.1886 67.0618 15.6136" fill="white"/>
<path d="M94.4819 0.163537C96.049 0.141895 97.6073 0.402716 99.0819 0.933526C100.318 1.37769 101.497 1.96859 102.592 2.69354C103.444 3.24378 104.209 3.91784 104.862 4.69354C105.27 5.10385 105.549 5.62567 105.662 6.19354C105.662 6.42475 105.611 6.6531 105.512 6.86227C105.414 7.07144 105.27 7.25626 105.092 7.40353C104.747 7.732 104.288 7.91469 103.812 7.91354C103.285 7.91662 102.779 7.71179 102.402 7.34353C101.322 6.3914 100.092 5.62439 98.7619 5.07352C97.3638 4.49637 95.8645 4.204 94.3519 4.21352C92.8267 4.20422 91.3157 4.5071 89.9119 5.10352C87.1486 6.26931 84.9541 8.47452 83.8019 11.2435C83.2034 12.6572 82.9005 14.1784 82.9119 15.7135C82.8987 17.2423 83.2017 18.7574 83.8019 20.1635C84.9726 22.9109 87.1627 25.0974 89.9119 26.2635C91.3142 26.8649 92.8262 27.168 94.3519 27.1535C95.8649 27.168 97.3652 26.8754 98.7619 26.2935C100.112 25.7358 101.346 24.9321 102.402 23.9235C102.585 23.7357 102.804 23.5873 103.047 23.4876C103.289 23.3878 103.55 23.3388 103.812 23.3435C104.321 23.3427 104.811 23.5358 105.182 23.8835C105.38 24.054 105.537 24.2662 105.642 24.5048C105.748 24.7435 105.799 25.0027 105.792 25.2635C105.692 25.8236 105.436 26.3438 105.052 26.7635C104.44 27.5391 103.695 28.1994 102.852 28.7135C101.725 29.4207 100.512 29.9787 99.2419 30.3735C97.6593 30.8644 96.0087 31.1007 94.3519 31.0735C90.3 31.1063 86.397 29.5479 83.4819 26.7335C82.0652 25.3487 80.9368 23.6969 80.1619 21.8735C79.3372 19.9326 78.9219 17.8423 78.9419 15.7335C78.9336 13.7242 79.3224 11.733 80.0861 9.87444C80.8498 8.01587 81.9733 6.32653 83.3919 4.90353C84.808 3.49409 86.4771 2.36434 88.3119 1.57353C90.2627 0.728526 92.3568 0.263548 94.4819 0.20353" fill="white"/>
<path d="M128.612 0.103546C130.628 0.0957146 132.622 0.51848 134.462 1.34355C138.148 2.97912 141.09 5.93197 142.712 9.62355C143.52 11.5066 143.937 13.5344 143.937 15.5836C143.937 17.6327 143.52 19.6605 142.712 21.5435C141.925 23.3619 140.81 25.0196 139.422 26.4335C138.023 27.8497 136.362 28.9807 134.532 29.7635C132.61 30.58 130.54 30.9919 128.452 30.9736C124.401 31.0064 120.5 29.4438 117.592 26.6236C116.17 25.2448 115.038 23.5959 114.262 21.7736C113.441 19.8319 113.029 17.7417 113.052 15.6336C113.032 13.5741 113.434 11.5323 114.232 9.63356C114.999 7.82055 116.105 6.17093 117.492 4.77356C118.91 3.36973 120.579 2.24368 122.412 1.45355C124.363 0.610649 126.457 0.145761 128.582 0.0835571L128.612 0.103546ZM128.452 4.08356C126.926 4.07456 125.414 4.38096 124.012 4.98355C122.653 5.56377 121.417 6.3988 120.372 7.44356C119.302 8.5133 118.454 9.78412 117.878 11.1829C117.301 12.5816 117.007 14.0806 117.012 15.5936C117.003 17.1188 117.305 18.6298 117.902 20.0336C119.083 22.7758 121.27 24.962 124.012 26.1436C125.416 26.7381 126.927 27.0409 128.452 27.0336C129.99 27.04 131.513 26.7373 132.932 26.1436C135.69 24.9784 137.888 22.7878 139.062 20.0336C139.667 18.632 139.973 17.12 139.962 15.5936C139.96 12.5401 138.753 9.611 136.602 7.44356C135.566 6.41564 134.345 5.59434 133.002 5.02356C131.585 4.42187 130.061 4.11561 128.522 4.12355" fill="white"/>
</svg>
