<svg xmlns="http://www.w3.org/2000/svg" viewBox="0 0 108 108">
  <rect width="108" height="108" style="fill: #0f0f0f"/>
  <g>
    <path d="M89.74,60h-.33a4.93,4.93,0,0,1-3.16-1.24l-5.56-5.53a4.23,4.23,0,0,1-1-3.13A4.66,4.66,0,0,1,80.82,47l2.25-2.24a.17.17,0,0,1,.24.24l-2.25,2.24A4.31,4.31,0,0,0,80,50.12a3.91,3.91,0,0,0,1,2.88l5.55,5.54a4.67,4.67,0,0,0,3,1.14,3.93,3.93,0,0,0,2.91-.88l2.31-2.31a.17.17,0,1,1,.24.24L92.57,59A3.94,3.94,0,0,1,89.74,60ZM97,54.54a.16.16,0,0,1-.11,0,.15.15,0,0,1,0-.23L98,53.14a4,4,0,0,0,1-2.73,3.76,3.76,0,0,0-1-2.75l-5.82-5.8a4.22,4.22,0,0,0-2.84-1,4,4,0,0,0-2.8,1l-1.46,1.45a.16.16,0,1,1-.23-.23l1.46-1.45a4.26,4.26,0,0,1,3-1.06,4.41,4.41,0,0,1,3.07,1.14l5.83,5.79a4.13,4.13,0,0,1,1.07,3,4.35,4.35,0,0,1-1.12,2.95l-1.13,1.12A.17.17,0,0,1,97,54.54Z" style="fill: #71bf4f"/>
    <path d="M78.72,35.27h-.19a2.84,2.84,0,0,1-1.83-.71l-3.21-3.18a2.41,2.41,0,0,1-.61-1.79,2.74,2.74,0,0,1,.68-1.79l1.3-1.28a.1.1,0,0,1,.14,0,.09.09,0,0,1,0,.13l-1.3,1.29a2.5,2.5,0,0,0-.63,1.65,2.28,2.28,0,0,0,.55,1.66l3.21,3.18a2.68,2.68,0,0,0,1.71.65,2.26,2.26,0,0,0,1.68-.5l1.34-1.33a.1.1,0,0,1,.13,0,.1.1,0,0,1,0,.14L80.35,34.7A2.26,2.26,0,0,1,78.72,35.27Zm4.17-3.15a.09.09,0,0,1-.07,0,.09.09,0,0,1,0-.13l.65-.65a2.27,2.27,0,0,0,.59-1.56,2.15,2.15,0,0,0-.56-1.59l-3.37-3.33a2.37,2.37,0,0,0-1.64-.59,2.26,2.26,0,0,0-1.62.55l-.84.83a.1.1,0,0,1-.13,0,.1.1,0,0,1,0-.14l.84-.83a2.46,2.46,0,0,1,1.75-.6,2.56,2.56,0,0,1,1.78.65L83.64,28a2.39,2.39,0,0,1,.62,1.72,2.55,2.55,0,0,1-.65,1.7l-.66.64A.07.07,0,0,1,82.89,32.12Z" style="fill: #71bf4f"/>
    <path d="M81.4,81.69h-.28a4.17,4.17,0,0,1-2.67-1L73.76,76a3.57,3.57,0,0,1-.88-2.63,3.93,3.93,0,0,1,1-2.61l1.89-1.89a.13.13,0,0,1,.2,0A.12.12,0,0,1,76,69l-1.9,1.89a3.63,3.63,0,0,0-.91,2.42,3.31,3.31,0,0,0,.8,2.43l4.69,4.66a3.91,3.91,0,0,0,2.48,1,3.34,3.34,0,0,0,2.46-.74l2-2a.14.14,0,0,1,.19,0,.13.13,0,0,1,0,.2l-1.95,1.94A3.35,3.35,0,0,1,81.4,81.69Zm6.09-4.61a.18.18,0,0,1-.1,0,.13.13,0,0,1,0-.2l1-.94a3.4,3.4,0,0,0,.86-2.3,3.15,3.15,0,0,0-.82-2.32l-4.91-4.89a3.54,3.54,0,0,0-2.4-.87,3.33,3.33,0,0,0-2.36.81l-1.23,1.22a.14.14,0,0,1-.2-.2l1.23-1.22a3.62,3.62,0,0,1,2.56-.89,3.78,3.78,0,0,1,2.59,1l4.92,4.88a3.46,3.46,0,0,1,.9,2.52,3.59,3.59,0,0,1-1,2.49l-1,1A.15.15,0,0,1,87.49,77.08Z" style="fill: #71bf4f"/>
    <path d="M34.22,31.27h.1a1.51,1.51,0,0,0,.94-.36l1.65-1.61a1.23,1.23,0,0,0,.31-.91,1.32,1.32,0,0,0-.35-.91l-.67-.65a0,0,0,0,0-.07.07l.67.65a1.25,1.25,0,0,1,.32.84,1.17,1.17,0,0,1-.28.84l-1.65,1.61a1.4,1.4,0,0,1-.88.33,1.15,1.15,0,0,1-.86-.25l-.69-.68h-.07a0,0,0,0,0,0,.07l.69.67A1.17,1.17,0,0,0,34.22,31.27Zm-2.14-1.59,0,0a0,0,0,0,0,0-.07l-.33-.32a1.25,1.25,0,0,1,0-1.6L33.49,26a1.27,1.27,0,0,1,.85-.3,1.22,1.22,0,0,1,.83.28l.43.42a0,0,0,1,0,.07-.07l-.43-.42a1.29,1.29,0,0,0-.9-.31,1.41,1.41,0,0,0-.92.33L31.7,27.6a1.17,1.17,0,0,0-.32.87,1.22,1.22,0,0,0,.33.86l.33.33Z" style="fill: #71bf4f;isolation: isolate;opacity: 0.30000001192092896"/>
    <path d="M44.37,79.85h.09a1.46,1.46,0,0,0,.94-.36l1.65-1.61a1.2,1.2,0,0,0,.31-.91,1.31,1.31,0,0,0-.35-.9l-.66-.65a0,0,0,0,0-.07,0s0,0,0,.06l.66.66a1.21,1.21,0,0,1,.32.83,1.07,1.07,0,0,1-.28.84l-1.65,1.61a1.38,1.38,0,0,1-.87.34,1.14,1.14,0,0,1-.86-.26l-.69-.67a0,0,0,1,0-.07.07l.69.67A1.2,1.2,0,0,0,44.37,79.85Zm-2.15-1.6h0a0,0,0,0,0,0-.07l-.34-.33a1.2,1.2,0,0,1-.3-.79,1.05,1.05,0,0,1,.29-.8l1.73-1.69a1.25,1.25,0,0,1,.84-.31,1.19,1.19,0,0,1,.83.28l.44.42a0,0,0,0,0,.06,0s0,0,0-.06l-.43-.42a1.25,1.25,0,0,0-.9-.31,1.28,1.28,0,0,0-.91.33l-1.73,1.69a1.19,1.19,0,0,0-.32.87,1.24,1.24,0,0,0,.34.86l.33.33Z" style="fill: #71bf4f;isolation: isolate;opacity: 0.30000001192092896"/>
    <path d="M21.28,68.78h.33a4.91,4.91,0,0,0,3.16-1.24L30.33,62a4.22,4.22,0,0,0,1-3.12,4.62,4.62,0,0,0-1.17-3.1L28,53.54a.16.16,0,0,0-.24,0,.17.17,0,0,0,0,.23L30,56A4.26,4.26,0,0,1,31,58.88a3.94,3.94,0,0,1-.94,2.89L24.54,67.3a4.59,4.59,0,0,1-2.95,1.14,3.89,3.89,0,0,1-2.91-.88l-2.31-2.3a.16.16,0,0,0-.24,0,.17.17,0,0,0,0,.23l2.32,2.3A3.94,3.94,0,0,0,21.28,68.78ZM14.07,63.3a.16.16,0,0,0,.11,0,.15.15,0,0,0,0-.23L13.06,61.9a4,4,0,0,1-1-2.72,3.79,3.79,0,0,1,1-2.76l5.82-5.8a4.16,4.16,0,0,1,2.84-1,3.94,3.94,0,0,1,2.8.95L25.93,52a.17.17,0,0,0,.23,0,.15.15,0,0,0,0-.23l-1.45-1.45a4.26,4.26,0,0,0-3-1.05,4.4,4.4,0,0,0-3.07,1.13l-5.83,5.79a4.13,4.13,0,0,0-1.07,3,4.33,4.33,0,0,0,1.12,3L14,63.25A.17.17,0,0,0,14.07,63.3Z" style="fill: #71bf4f"/>
  </g>
</svg>
