<svg xmlns="http://www.w3.org/2000/svg" xmlns:xlink="http://www.w3.org/1999/xlink" viewBox="0 0 108 108">
  <defs>
    <linearGradient id="a" x1="74.99" y1="56" x2="31.8" y2="56" gradientTransform="matrix(1, 0, 0, -1, 0, 110)" gradientUnits="userSpaceOnUse">
      <stop offset="0" stop-color="#5cc6ce"/>
      <stop offset="1" stop-color="#71bf4f"/>
    </linearGradient>
  </defs>
  <path d="M49.23,33.15a90.51,90.51,0,0,0-12,11c1,1.94,1.48,2.9,2.44,4.81a.21.21,0,0,1,0,.06Q42.87,55.33,46,61.67c.79,1.6,1.79,2.55,2.69,2.54s1.7-.76,2.47-2.07c.72,1.43,1.08,2.14,1.81,3.56a5.61,5.61,0,0,1-4.33,2.11c-2.75,0-4.84-2.09-5.91-4.47-2.61-5.43-5.22-10.84-7.92-16.23-.55.7-1.09,1.4-1.62,2.12a9,9,0,0,0,0,9.53A87.49,87.49,0,0,0,49.23,74.85a9.06,9.06,0,0,0,9.54,0A87.49,87.49,0,0,0,74.85,58.76a9.06,9.06,0,0,0,0-9.53c-.53-.72-1.07-1.42-1.62-2.11-2.69,5.39-5.31,10.81-7.92,16.24-1.07,2.37-3.17,4.47-5.92,4.46A6.88,6.88,0,0,1,53.9,64.2h0c-.77-1.49-1.15-2.24-1.9-3.73l-.42-.83,0-.07c-.14-.29-.21-.42-.36-.71q-1.83-3.63-3.63-7.26a7.69,7.69,0,0,1-1.1-3.91.2.2,0,0,1,0-.11,7.56,7.56,0,0,1,15.11.11v.11a7.8,7.8,0,0,1-1,3.66c-1.26,2.4-2.5,4.79-3.74,7.18-.79-1.54-1.18-2.31-2-3.85l2.51-5a.93.93,0,0,1,0-.1,4.07,4.07,0,0,0,.55-2v-.08a3.95,3.95,0,0,0-7.89.08v.08a4,4,0,0,0,.6,2l.08.14c.79,1.57,1.18,2.36,2,3.93h0q1.62,3.21,3.25,6.41v0c.27.54.4.8.68,1.34l0,0c.8,1.57,1.82,2.51,2.71,2.52s1.91-.94,2.7-2.54c2.87-5.85,5.74-11.71,8.71-17.52a91.15,91.15,0,0,0-12-11,9.08,9.08,0,0,0-9.53,0Z" style="fill: url(#a)"/>
</svg>
